<svg id="Group_8187" data-name="Group 8187" xmlns="http://www.w3.org/2000/svg" width="16.601" height="16.601" viewBox="0 0 16.601 16.601">
  <path id="Path_9479" data-name="Path 9479" d="M13.621,2H6.98A4.985,4.985,0,0,0,2,6.98V17.771a.83.83,0,0,0,.83.83H13.621a4.985,4.985,0,0,0,4.98-4.98V6.98A4.985,4.985,0,0,0,13.621,2Zm3.32,11.621a3.324,3.324,0,0,1-3.32,3.32H3.66V6.98A3.324,3.324,0,0,1,6.98,3.66h6.641a3.324,3.324,0,0,1,3.32,3.32Z" transform="translate(-2 -2)" fill="#fff"/>
  <path id="Path_9480" data-name="Path 9480" d="M7,13.63v1.659H8.659l4.589-4.584L11.59,9.047Zm7.031-3.706-1.658-1.66L13.636,7,15.3,8.659Z" transform="translate(-2.85 -2.85)" fill="#fff"/>
</svg>
