<svg xmlns="http://www.w3.org/2000/svg" width="24.861" height="20.442" viewBox="0 0 24.861 20.442">
  <g id="Group_8313" data-name="Group 8313" transform="translate(-0.19 -1)">
    <path id="Path_9519" data-name="Path 9519" d="M15.344,5.717H3.335A1.572,1.572,0,0,0,1.769,7.431l1,11.006a1.572,1.572,0,0,0,1.564,1.431h6.708v1.572H4.335A3.145,3.145,0,0,1,1.2,18.58L.2,7.574a3.129,3.129,0,0,1,.538-2.06L.678,4.145A3.145,3.145,0,0,1,3.822,1H9.6a3.144,3.144,0,0,1,2.223.921l1.3,1.3a3.145,3.145,0,0,0,2.223.921h6.261a3.145,3.145,0,0,1,3.132,3.429l-.4,3.432H22.753l.417-3.576a1.572,1.572,0,0,0-1.564-1.714ZM10.706,3.033l1.115,1.112H3.335a3.132,3.132,0,0,0-1.075.189l-.009-.22A1.572,1.572,0,0,1,3.822,2.572H9.6a1.572,1.572,0,0,1,1.111.46Z" transform="translate(0 0)" fill="#4169d5" fill-rule="evenodd"/>
    <path id="Path_9520" data-name="Path 9520" d="M18.919,10.23a.786.786,0,0,1,0,1.113L14.2,16.06a.786.786,0,0,1-1.113,0L10.73,13.7a.787.787,0,0,1,1.113-1.113l1.8,1.8,4.16-4.162a.786.786,0,0,1,1.113,0Z" transform="translate(5.901 5.151)" fill="#4169d5" fill-rule="evenodd"/>
  </g>
</svg>
