<svg id="Group_8202" data-name="Group 8202" xmlns="http://www.w3.org/2000/svg" width="16.601" height="16.601" viewBox="0 0 16.601 16.601">
  <path id="Path_9477" data-name="Path 9477" d="M13.621,11.961h.415a1.247,1.247,0,0,0,1.245-1.245V3.245A1.247,1.247,0,0,0,14.036,2H3.245A1.247,1.247,0,0,0,2,3.245V15.281l4.427-3.32ZM5.874,10.3,3.66,11.961V3.66h9.961V10.3Z" transform="translate(-2 -2)" fill="#fff"/>
  <path id="Path_9478" data-name="Path 9478" d="M18.376,8h-.415v4.981a1.662,1.662,0,0,1-1.652,1.659H8v.415A1.247,1.247,0,0,0,9.245,16.3h5.949l4.427,3.32V9.245A1.247,1.247,0,0,0,18.376,8Z" transform="translate(-3.02 -3.02)" fill="#fff"/>
</svg>
