<svg xmlns="http://www.w3.org/2000/svg" width="12.663" height="11.239" viewBox="0 0 12.663 11.239">
  <g id="Group_9079" data-name="Group 9079" transform="translate(-71.999 -121.07)">
    <path id="Path_20124" data-name="Path 20124" d="M430.306,323.786h-3.68a.115.115,0,0,0-.115.115v.69a.115.115,0,0,0,.115.115h3.68a.115.115,0,0,0,.115-.115v-.69A.115.115,0,0,0,430.306,323.786Zm-1.926,1.955h-1.754a.115.115,0,0,0-.115.115v.69a.115.115,0,0,0,.115.115h1.754a.115.115,0,0,0,.115-.115v-.69A.115.115,0,0,0,428.38,325.741Zm-4.8-3.241h-.622a.161.161,0,0,0-.161.161v3.565a.159.159,0,0,0,.066.129l2.14,1.561a.16.16,0,0,0,.224-.035l.369-.5h0a.161.161,0,0,0-.036-.224l-1.821-1.317v-3.174A.16.16,0,0,0,423.583,322.5Z" transform="translate(-345.759 -198.535)" fill="#fff"/>
    <path id="Path_20125" data-name="Path 20125" d="M82.532,129.016H81.7a.236.236,0,0,0-.2.111,4.612,4.612,0,0,1-.64.8,4.582,4.582,0,1,1,0-6.477,4.613,4.613,0,0,1,.64.8.236.236,0,0,0,.2.111h.831a.131.131,0,0,0,.118-.191,5.62,5.62,0,1,0,0,5.036A.132.132,0,0,0,82.532,129.016Z" fill="#fff"/>
  </g>
</svg>
