<svg xmlns="http://www.w3.org/2000/svg" width="27.129" height="25.93" viewBox="0 0 27.129 25.93">
  <g id="Group_8298" data-name="Group 8298" transform="translate(-146.424 -149.699)">
    <path id="Path_9506" data-name="Path 9506" d="M23.738,1.7H3.391a1.7,1.7,0,0,0-1.7,1.7V23.036l3.391-3.391a3.391,3.391,0,0,1,2.4-.994H23.738a1.7,1.7,0,0,0,1.7-1.7V3.391A1.7,1.7,0,0,0,23.738,1.7ZM3.391,0A3.391,3.391,0,0,0,0,3.391V25.082a.848.848,0,0,0,1.448.6l4.837-4.837a1.7,1.7,0,0,1,1.2-.5H23.738a3.391,3.391,0,0,0,3.391-3.391V3.391A3.391,3.391,0,0,0,23.738,0Z" transform="translate(146.424 149.699)" fill="#7161bb" fill-rule="evenodd"/>
    <g id="Group_8297" data-name="Group 8297" transform="translate(154.388 157.783)">
      <path id="Path_9507" data-name="Path 9507" d="M-2770.953,187.406h10.637" transform="translate(2770.954 -187.406)" fill="none" stroke="#7161bb" stroke-linecap="round" stroke-width="1.3"/>
      <path id="Path_9508" data-name="Path 9508" d="M-2770.954,187.406h4.719" transform="translate(2770.954 -183.157)" fill="none" stroke="#7161bb" stroke-linecap="round" stroke-width="1.3"/>
    </g>
  </g>
</svg>
