<svg id="Group_1" data-name="Group 1" xmlns="http://www.w3.org/2000/svg" width="15.895" height="15.895" viewBox="0 0 15.895 15.895">
  <path id="Path_1" data-name="Path 1" d="M0,0H15.9V15.9H0Z" fill="none"/>
  <path id="Path_2" data-name="Path 2" d="M12.005,7.127A3.693,3.693,0,0,0,8.486,3.282,3.693,3.693,0,0,0,4.966,7.127v5.127h7.039Zm1.173,5.555.235.342a.345.345,0,0,1,.028.336.292.292,0,0,1-.262.177H3.793a.292.292,0,0,1-.262-.177.345.345,0,0,1,.028-.336l.235-.342V7.127A4.924,4.924,0,0,1,8.486,2a4.924,4.924,0,0,1,4.693,5.127Zm-6.159,1.5H9.952a1.539,1.539,0,0,1-1.466,1.6,1.539,1.539,0,0,1-1.466-1.6Z" transform="translate(-0.538 -0.308)" fill="#35435a"/>
</svg>
