<svg id="Group_18" data-name="Group 18" xmlns="http://www.w3.org/2000/svg" width="19.023" height="19.023" viewBox="0 0 19.023 19.023">
  <path id="Path_22" data-name="Path 22" d="M0,0H19.023V19.023H0Z" fill="none"/>
  <path id="Path_23" data-name="Path 23" d="M2,10a7.954,7.954,0,0,1,.25-1.985A2.378,2.378,0,0,0,4.37,4.347,7.918,7.918,0,0,1,7.806,2.362a2.378,2.378,0,0,0,4.239,0,7.918,7.918,0,0,1,3.436,1.985,2.378,2.378,0,0,0,2.12,3.67,7.955,7.955,0,0,1,0,3.969,2.378,2.378,0,0,0-2.12,3.669,7.918,7.918,0,0,1-3.436,1.985,2.378,2.378,0,0,0-4.239,0A7.918,7.918,0,0,1,4.37,15.655a2.378,2.378,0,0,0-2.12-3.67A7.97,7.97,0,0,1,2,10Zm3.808,2.378a3.96,3.96,0,0,1,.447,2.793,6.347,6.347,0,0,0,1.028.594,3.965,3.965,0,0,1,5.287,0,6.347,6.347,0,0,0,1.028-.594A3.963,3.963,0,0,1,16.24,10.6a6.441,6.441,0,0,0,0-1.189A3.962,3.962,0,0,1,13.6,4.83a6.332,6.332,0,0,0-1.028-.594,3.964,3.964,0,0,1-5.286,0,6.333,6.333,0,0,0-1.028.594A3.963,3.963,0,0,1,3.612,9.407a6.441,6.441,0,0,0,0,1.189,3.958,3.958,0,0,1,2.2,1.783Zm4.118,0A2.378,2.378,0,1,1,12.3,10,2.378,2.378,0,0,1,9.926,12.379Zm0-1.585A.793.793,0,1,0,9.134,10,.793.793,0,0,0,9.926,10.794Z" transform="translate(-0.415 -0.49)" fill="#fff"/>
</svg>
