<svg xmlns="http://www.w3.org/2000/svg" width="9.811" height="9.811" viewBox="0 0 9.811 9.811">
  <path id="Path_9450" data-name="Path 9450" d="M3,4.087A1.087,1.087,0,0,1,4.087,3h7.637a1.087,1.087,0,0,1,1.087,1.087v7.637a1.087,1.087,0,0,1-1.087,1.087H4.087A1.087,1.087,0,0,1,3,11.724Zm1.09,0v7.631h7.631V4.09Zm1.62,7.184a5.442,5.442,0,0,1-.954-.533,3.817,3.817,0,0,1,6.355-.084,5.448,5.448,0,0,1-.94.559,2.727,2.727,0,0,0-4.461.059Zm2.2-2.824A1.908,1.908,0,1,1,9.813,6.543,1.908,1.908,0,0,1,7.906,8.451Zm0-1.09a.818.818,0,1,0-.818-.818A.818.818,0,0,0,7.906,7.361Z" transform="translate(-3 -3)" fill="#fff"/>
</svg>
