<svg xmlns="http://www.w3.org/2000/svg" width="9.82" height="9.837" viewBox="0 0 9.82 9.837">
  <path id="Path_9451" data-name="Path 9451" d="M7.542,2.679A2.1,2.1,0,0,1,9.2,4.337M7.542,1a3.777,3.777,0,0,1,3.337,3.333m-.42,3.349V8.941a.839.839,0,0,1-.915.839A8.306,8.306,0,0,1,5.922,8.492,8.185,8.185,0,0,1,3.4,5.974,8.306,8.306,0,0,1,2.115,2.335a.839.839,0,0,1,.835-.915H4.21a.839.839,0,0,1,.839.722,5.389,5.389,0,0,0,.294,1.179.839.839,0,0,1-.189.886l-.533.533A6.716,6.716,0,0,0,7.139,7.258l.533-.533a.839.839,0,0,1,.886-.189,5.389,5.389,0,0,0,1.179.294A.839.839,0,0,1,10.459,7.682Z" transform="translate(-1.612 -0.448)" fill="none" stroke="#fff" stroke-linecap="round" stroke-linejoin="round" stroke-width="1"/>
</svg>
