<svg xmlns="http://www.w3.org/2000/svg" width="16.519" height="16.519" viewBox="0 0 16.519 16.519">
  <path id="Path_21" data-name="Path 21" d="M10.259,2A8.269,8.269,0,0,0,2,10.259v3.422a1.6,1.6,0,0,0,1.652,1.534h.826a.826.826,0,0,0,.826-.826V10.141a.826.826,0,0,0-.826-.826h-.75a6.6,6.6,0,0,1,13.063,0h-.75a.826.826,0,0,0-.826.826v5.074a1.654,1.654,0,0,1-1.652,1.652H11.911v-.826h-3.3v2.478h4.956a3.307,3.307,0,0,0,3.3-3.3,1.6,1.6,0,0,0,1.652-1.534V10.259A8.269,8.269,0,0,0,10.259,2Z" transform="translate(-2 -2)" fill="#fff"/>
</svg>
