<svg xmlns="http://www.w3.org/2000/svg" width="11.24" height="11.259" viewBox="0 0 11.24 11.259">
  <path id="Path_47" data-name="Path 47" d="M8.421,2.951a2.438,2.438,0,0,1,1.926,1.926M8.421,1A4.389,4.389,0,0,1,12.3,4.872m-.488,3.892v1.463a.975.975,0,0,1-1.063.975A9.651,9.651,0,0,1,6.539,9.7,9.51,9.51,0,0,1,3.613,6.779a9.651,9.651,0,0,1-1.5-4.228.975.975,0,0,1,.97-1.063H4.549a.975.975,0,0,1,.975.839A6.262,6.262,0,0,0,5.866,3.7a.975.975,0,0,1-.219,1.029l-.619.619A7.8,7.8,0,0,0,7.953,8.271l.619-.619A.975.975,0,0,1,9.6,7.432a6.262,6.262,0,0,0,1.37.341A.975.975,0,0,1,11.811,8.764Z" transform="translate(-1.612 -0.448)" fill="none" stroke="#686b71" stroke-linecap="round" stroke-linejoin="round" stroke-width="1"/>
</svg>
