<svg xmlns="http://www.w3.org/2000/svg" width="16.601" height="15.771" viewBox="0 0 16.601 15.771">
  <path id="Path_9482" data-name="Path 9482" d="M17.771,3h-5.81a2.474,2.474,0,0,0-1.66.647A2.474,2.474,0,0,0,8.641,3H2.83A.83.83,0,0,0,2,3.83V16.281a.83.83,0,0,0,.83.83H7.61a1.673,1.673,0,0,1,1.174.486l.931.93c.007.007.017.01.025.017a.848.848,0,0,0,.244.163h0a.827.827,0,0,0,.633,0h0a.848.848,0,0,0,.244-.163c.007-.007.017-.01.025-.017l.931-.93a1.673,1.673,0,0,1,1.174-.486h4.78a.83.83,0,0,0,.83-.83V3.83A.83.83,0,0,0,17.771,3ZM7.61,15.451H3.66V4.66h4.98a.831.831,0,0,1,.83.83V16.023a3.347,3.347,0,0,0-1.861-.572Zm9.332,0H12.992a3.347,3.347,0,0,0-1.861.572V5.49a.831.831,0,0,1,.83-.83h4.98Z" transform="translate(-2 -3)" fill="#fff"/>
</svg>
